name rise49.5252peak65.1548fall88.8305.mot
datacolumns 19
datarows 15
range 23.86823400000000 23.89157800000000
endheader
time	ground_force1_vx	ground_force1_vy	ground_force1_vz	ground_force1_px	ground_force1_py	ground_force1_pz	ground_force2_vx	ground_force2_vy	ground_force2_vz	ground_force2_px	ground_force2_py	ground_force2_pz	ground_torque1_x	ground_torque1_y	ground_torque1_z	ground_torque2_x	ground_torque2_y	ground_torque2_z	
23.86823400000000	11.32055100000000	723.99154199999998	46.78545600000000	0.28532200000000	0.00000000000000	0.13386100000000	0.00000000000000	0.00000000000000	0.00000000000000	0.00000000000000	0.00000000000000	0.00000000000000	0.00000000000000	23.11502400000000	0.00000000000000	0.00000000000000	0.00000000000000	0.00000000000000	
23.86990000000000	11.02044500000000	724.19187399999998	46.78755000000000	0.28481300000000	0.00000000000000	0.13375600000000	0.00000000000000	0.00000000000000	0.00000000000000	0.00000000000000	0.00000000000000	0.00000000000000	0.00000000000000	23.16355600000000	0.00000000000000	0.00000000000000	0.00000000000000	0.00000000000000	
23.87157400000000	10.71638600000000	724.38942399999996	46.79351300000000	0.28430100000000	0.00000000000000	0.13365200000000	0.00000000000000	0.00000000000000	0.00000000000000	0.00000000000000	0.00000000000000	0.00000000000000	0.00000000000000	23.21591700000000	0.00000000000000	0.00000000000000	0.00000000000000	0.00000000000000	
23.87323600000000	10.40808000000000	724.58408299999996	46.80316200000000	0.28378300000000	0.00000000000000	0.13354800000000	0.00000000000000	0.00000000000000	0.00000000000000	0.00000000000000	0.00000000000000	0.00000000000000	0.00000000000000	23.27200200000000	0.00000000000000	0.00000000000000	0.00000000000000	0.00000000000000	
23.87490400000000	10.09524600000000	724.77587300000005	46.81631900000000	0.28326000000000	0.00000000000000	0.13344400000000	0.00000000000000	0.00000000000000	0.00000000000000	0.00000000000000	0.00000000000000	0.00000000000000	0.00000000000000	23.33170800000000	0.00000000000000	0.00000000000000	0.00000000000000	0.00000000000000	
23.87657100000000	9.77761500000000	724.96494700000005	46.83280900000000	0.28272900000000	0.00000000000000	0.13334100000000	0.00000000000000	0.00000000000000	0.00000000000000	0.00000000000000	0.00000000000000	0.00000000000000	0.00000000000000	23.39493200000000	0.00000000000000	0.00000000000000	0.00000000000000	0.00000000000000	
23.87823600000000	9.45493200000000	725.15158299999996	46.85245900000000	0.28218900000000	0.00000000000000	0.13323900000000	0.00000000000000	0.00000000000000	0.00000000000000	0.00000000000000	0.00000000000000	0.00000000000000	0.00000000000000	23.46156900000000	0.00000000000000	0.00000000000000	0.00000000000000	0.00000000000000	
23.87990900000000	9.12695600000000	725.33618700000000	46.87510400000000	0.28164100000000	0.00000000000000	0.13313700000000	0.00000000000000	0.00000000000000	0.00000000000000	0.00000000000000	0.00000000000000	0.00000000000000	0.00000000000000	23.53151400000000	0.00000000000000	0.00000000000000	0.00000000000000	0.00000000000000	
23.88157300000000	8.79345800000000	725.51928899999996	46.90058100000000	0.28108100000000	0.00000000000000	0.13303600000000	0.00000000000000	0.00000000000000	0.00000000000000	0.00000000000000	0.00000000000000	0.00000000000000	0.00000000000000	23.60466200000000	0.00000000000000	0.00000000000000	0.00000000000000	0.00000000000000	
23.88323700000000	8.45422800000000	725.70154000000002	46.92873400000000	0.28051100000000	0.00000000000000	0.13293600000000	0.00000000000000	0.00000000000000	0.00000000000000	0.00000000000000	0.00000000000000	0.00000000000000	0.00000000000000	23.68090800000000	0.00000000000000	0.00000000000000	0.00000000000000	0.00000000000000	
23.88490600000000	8.10906900000000	725.88370799999996	46.95941200000000	0.27992800000000	0.00000000000000	0.13283600000000	0.00000000000000	0.00000000000000	0.00000000000000	0.00000000000000	0.00000000000000	0.00000000000000	0.00000000000000	23.76014600000000	0.00000000000000	0.00000000000000	0.00000000000000	0.00000000000000	
23.88658800000000	7.75780100000000	726.06667400000003	46.99247200000000	0.27933100000000	0.00000000000000	0.13273800000000	0.00000000000000	0.00000000000000	0.00000000000000	0.00000000000000	0.00000000000000	0.00000000000000	0.00000000000000	23.84227100000000	0.00000000000000	0.00000000000000	0.00000000000000	0.00000000000000	
23.88823500000000	7.40025900000000	726.25142800000003	47.02777600000000	0.27872000000000	0.00000000000000	0.13264000000000	0.00000000000000	0.00000000000000	0.00000000000000	0.00000000000000	0.00000000000000	0.00000000000000	0.00000000000000	23.92717800000000	0.00000000000000	0.00000000000000	0.00000000000000	0.00000000000000	
23.88990700000000	7.03629700000000	726.43906200000004	47.06519300000000	0.27809400000000	0.00000000000000	0.13254400000000	0.00000000000000	0.00000000000000	0.00000000000000	0.00000000000000	0.00000000000000	0.00000000000000	0.00000000000000	24.01476200000000	0.00000000000000	0.00000000000000	0.00000000000000	0.00000000000000	
23.89157800000000	6.66578400000000	726.63076300000000	47.10460300000000	0.27745200000000	0.00000000000000	0.13244800000000	0.00000000000000	0.00000000000000	0.00000000000000	0.00000000000000	0.00000000000000	0.00000000000000	0.00000000000000	24.10491800000000	0.00000000000000	0.00000000000000	0.00000000000000	0.00000000000000	
